<svg version="1.1" id="Layer_1" xmlns="http://www.w3.org/2000/svg" xmlns:xlink="http://www.w3.org/1999/xlink" x="0px" y="0px"
	 width="100%" viewBox="0 0 661 67" enable-background="new 0 0 661 67" xml:space="preserve">

<path fill="#EEEEEE" opacity="1.000000" stroke="none"
	d="
M71.021660,12.136604 
	C76.149551,12.411746 80.819832,12.429522 85.416092,13.021803 
	C92.438591,13.926734 97.314804,18.829144 97.953712,25.072485 
	C98.679222,32.162060 95.410484,37.600887 88.740234,40.424301 
	C88.285210,40.616905 87.863815,40.888950 86.975128,41.367008 
	C90.978592,47.001213 94.936409,52.571175 98.931229,58.193218 
	C91.515976,60.171242 90.208199,59.717216 86.159943,53.924171 
	C85.112495,52.425266 83.727257,51.084812 83.008896,49.447117 
	C80.077377,42.763931 74.906738,41.512409 68.088020,43.224155 
	C68.088020,48.150059 68.088020,53.254349 68.088020,58.686493 
	C65.188248,58.686493 62.625504,58.686493 59.853668,58.686493 
	C59.853668,51.107830 59.853668,43.495464 59.853668,35.263103 
	C66.115883,35.263103 72.210342,35.408440 78.292198,35.194725 
	C80.884819,35.103619 84.123802,35.041344 85.848343,33.552242 
	C87.737061,31.921379 88.956444,28.707909 89.132004,26.094425 
	C89.379959,22.403177 86.346931,20.431259 82.989571,20.153772 
	C77.691940,19.715923 72.347633,19.831961 67.022598,19.741871 
	C64.734322,19.703156 62.444847,19.735388 59.920059,19.735388 
	C59.920059,17.047510 59.920059,14.796747 59.920059,12.136557 
	C63.618355,12.136557 67.074631,12.136557 71.021660,12.136604 
z"/>
<path fill="#EEEEEE" opacity="1.000000" stroke="none"
	d="
M546.808472,21.047215 
	C546.808472,17.924097 546.808472,15.294137 546.808472,12.405695 
	C549.634644,12.405695 552.021057,12.405695 554.634155,12.405695 
	C554.634155,27.889917 554.634155,43.149471 554.634155,58.578976 
	C550.299438,59.840195 547.510681,58.663193 544.818481,54.713333 
	C535.934143,41.678440 526.556824,28.979713 517.385193,16.140167 
	C516.628296,15.080537 515.995483,13.932216 515.284302,12.791873 
	C520.951233,10.704901 524.410706,12.760189 527.536011,17.523258 
	C533.339355,26.367521 539.756348,34.809048 546.808472,44.662708 
	C546.808472,35.972511 546.808472,28.756441 546.808472,21.047215 
z"/>
<path fill="#EEEEEE" opacity="1.000000" stroke="none"
	d="
M192.609573,56.714264 
	C182.123779,41.966869 171.857971,27.538248 161.456039,12.918323 
	C169.205551,11.351011 169.202560,11.353156 173.292007,17.057945 
	C179.574081,25.821476 185.860779,34.581707 192.741104,44.173668 
	C192.741104,33.128757 192.741104,22.960655 192.741104,12.475568 
	C195.622513,12.475568 198.019455,12.475568 200.755463,12.475568 
	C200.755463,27.783216 200.755463,43.168022 200.755463,59.825218 
	C197.889786,58.815681 195.359665,57.924358 192.609573,56.714264 
z"/>
<path fill="#EEEEEE" opacity="1.000000" stroke="none"
	d="
M377.316101,19.658474 
	C382.756439,27.241982 387.959656,34.551826 393.173889,41.853756 
	C393.461914,42.257088 393.841858,42.594780 394.866699,43.714119 
	C394.866699,32.867065 394.866699,22.742609 394.866699,12.392584 
	C397.815277,12.392584 400.088470,12.392584 402.778107,12.392584 
	C402.778107,27.645603 402.778107,43.017151 402.778107,58.637840 
	C398.709412,59.895309 395.867584,58.662216 393.210602,54.784145 
	C384.014954,41.362274 374.431946,28.205811 365.004425,14.942636 
	C364.554596,14.309772 364.181152,13.622592 363.749237,12.923625 
	C371.009705,9.773539 374.125763,14.419112 377.316101,19.658474 
z"/>
<path fill="#EEEEEE" opacity="1.000000" stroke="none"
	d="
M291.049377,11.977496 
	C294.156372,11.977406 296.786407,11.977406 299.621063,11.977406 
	C299.621063,14.621576 299.621063,16.844685 299.621063,19.296400 
	C294.934906,19.507200 290.454407,19.480217 286.028320,19.957911 
	C278.089966,20.814676 272.649750,27.155100 272.559723,35.246815 
	C272.464905,43.766819 277.727936,50.058258 286.014099,50.962872 
	C290.442902,51.446373 294.921539,51.473679 299.613434,51.719204 
	C299.613434,54.026463 299.613434,56.135868 299.613434,58.288574 
	C287.795959,61.484142 274.240112,57.713158 268.233215,49.194889 
	C263.046234,41.839367 262.332947,33.802990 266.002686,25.617167 
	C269.845764,17.044653 277.185516,13.329722 286.086853,12.150758 
	C287.563812,11.955142 289.076324,12.028517 291.049377,11.977496 
z"/>
<path fill="#EEEEEE" opacity="1.000000" stroke="none"
	d="
M441.974609,40.230202 
	C444.032898,28.169970 438.786499,20.976934 427.227356,19.888903 
	C423.475189,19.535725 419.661774,19.833447 415.572662,19.833447 
	C415.572662,16.990566 415.572662,14.895097 415.572662,12.322322 
	C424.494690,11.463325 433.581238,11.134396 441.576416,16.662590 
	C449.828339,22.368280 452.556427,30.786249 450.832458,40.298077 
	C449.143585,49.616199 443.055420,55.775051 433.898132,57.838707 
	C428.029999,59.161140 421.811951,58.930908 415.479492,59.417553 
	C415.479492,56.447086 415.479492,54.339901 415.479492,51.619213 
	C425.549835,51.232140 437.018799,53.437538 441.974609,40.230202 
z"/>
<path fill="#00ADB5" opacity="1.000000" stroke="none"
	d="
M577.909058,55.208389 
	C567.931091,47.600704 564.489136,36.985493 568.481262,26.971594 
	C573.182861,15.177952 584.167908,10.465730 602.806030,12.361347 
	C602.806030,14.584370 602.806030,16.833132 602.806030,19.757750 
	C598.552979,19.757750 594.401917,19.460375 590.308411,19.818785 
	C581.399902,20.598751 575.871582,26.584221 575.751892,35.119228 
	C575.625061,44.163750 580.814148,50.084324 589.995850,51.048222 
	C594.105469,51.479652 598.261719,51.466621 602.705811,51.669388 
	C602.705811,53.981892 602.705811,56.218964 602.705811,58.869801 
	C594.438965,59.025639 585.980408,60.049732 577.909058,55.208389 
z"/>
<path fill="#00ADB5" opacity="1.000000" stroke="none"
	d="
M151.914185,57.436184 
	C146.738541,60.509216 143.780914,59.606636 141.965820,54.724667 
	C136.779297,40.774677 131.618454,26.815140 126.415062,12.771764 
	C134.945267,11.106714 134.986542,11.091481 137.634476,18.265606 
	C142.398300,31.172441 147.107224,44.099537 151.914185,57.436184 
z"/>
<path fill="#00ADB5" opacity="1.000000" stroke="none"
	d="
M228.727570,13.506622 
	C235.861374,12.816207 242.601257,12.210701 249.681824,11.574586 
	C249.681824,14.678055 249.681824,16.914774 249.681824,19.738443 
	C236.437454,19.563494 221.858063,17.683664 221.056152,37.510666 
	C218.215805,37.510666 215.628006,37.510666 213.060043,37.510666 
	C211.564270,26.698030 216.403992,19.178030 228.727570,13.506622 
z"/>
<path fill="#00ADB5" opacity="1.000000" stroke="none"
	d="
M245.989578,34.250572 
	C247.539963,34.358917 248.654282,34.467163 249.742996,34.572918 
	C249.689209,52.680592 238.019318,60.325161 212.772995,58.819263 
	C212.772995,56.609207 212.772995,54.372501 212.772995,51.435650 
	C215.860565,51.435650 218.957428,51.442932 222.054260,51.434376 
	C234.759094,51.399277 239.490921,47.351387 241.371567,34.532112 
	C242.700455,34.442619 244.126984,34.346546 245.989578,34.250572 
z"/>
<path fill="#00ADB5" opacity="1.000000" stroke="none"
	d="
M35.982231,12.138107 
	C40.122337,12.138135 43.766300,12.138135 47.751820,12.138135 
	C47.751820,14.759538 47.751820,17.127335 47.751820,19.731064 
	C35.278667,19.731064 22.864294,19.731064 10.214294,19.731064 
	C10.214294,17.305952 10.214294,15.036077 10.214294,12.138081 
	C18.612581,12.138081 27.049335,12.138081 35.982231,12.138107 
z"/>
<path fill="#EEEEEE" opacity="1.000000" stroke="none"
	d="
M318.331940,59.030014 
	C311.012451,58.887157 316.694916,54.009453 313.572205,51.649811 
	C326.541656,51.649811 337.919220,51.649811 349.585938,51.649811 
	C349.585938,54.083565 349.585938,56.299938 349.585938,59.030052 
	C339.277344,59.030052 329.034332,59.030052 318.331940,59.030014 
z"/>
<path fill="#EEEEEE" opacity="1.000000" stroke="none"
	d="
M489.953247,51.429497 
	C493.770081,51.429504 497.095459,51.429504 500.815796,51.429504 
	C500.815796,53.936741 500.815796,56.307545 500.815796,58.820404 
	C489.412292,58.820404 478.001984,58.820404 466.363953,58.820404 
	C466.363953,56.383720 466.363953,54.158134 466.363953,51.429493 
	C474.215637,51.429493 481.838715,51.429493 489.953247,51.429497 
z"/>
<path fill="#EEEEEE" opacity="1.000000" stroke="none"
	d="
M479.016296,19.764330 
	C474.555786,19.764320 470.592102,19.764320 466.388458,19.764320 
	C466.388458,17.071053 466.388458,14.848570 466.388458,12.369397 
	C477.937286,12.369397 489.216248,12.369397 500.931091,12.369397 
	C500.931091,14.601083 500.931091,16.948761 500.931091,19.764339 
	C493.743286,19.764339 486.628204,19.764339 479.016296,19.764330 
z"/>
<path fill="#EEEEEE" opacity="1.000000" stroke="none"
	d="
M328.016785,12.114408 
	C335.474335,12.114414 342.434723,12.114414 349.601135,12.114414 
	C349.601135,14.778222 349.601135,16.999317 349.601135,19.490677 
	C338.042328,19.490677 326.761383,19.490677 315.057495,19.490677 
	C315.057495,17.257740 315.057495,14.897497 315.057495,12.114403 
	C319.272003,12.114403 323.395813,12.114403 328.016785,12.114408 
z"/>
<path fill="#EEEEEE" opacity="1.000000" stroke="none"
	d="
M367.826324,59.047058 
	C365.885498,59.048023 364.399536,59.048023 362.566864,59.048023 
	C362.566864,47.196720 362.566864,35.566269 362.566864,23.097422 
	C367.107117,28.906487 371.801758,33.561085 370.724121,41.309311 
	C370.067200,46.032803 370.747864,50.929749 370.497620,55.731583 
	C370.438171,56.871822 369.055267,57.943096 367.826324,59.047058 
z"/>
<path fill="#EEEEEE" opacity="1.000000" stroke="none"
	d="
M125.067650,36.980606 
	C121.975792,44.542637 118.991180,51.722847 116.005051,58.906700 
	C113.289818,58.906700 110.816856,58.906700 107.395470,58.906700 
	C112.207130,47.011784 116.854774,35.522343 121.502419,24.032904 
	C122.088142,23.987633 122.673866,23.942360 123.259583,23.897089 
	C123.898018,28.130985 124.536453,32.364883 125.067650,36.980606 
z"/>
<path fill="#00ADB5" opacity="1.000000" stroke="none"
	d="
M623.104736,59.029709 
	C621.156494,59.029671 619.696655,59.029671 618.130371,59.029671 
	C618.130371,56.354820 618.130371,54.111221 618.130371,51.678276 
	C629.789246,51.678276 641.210388,51.678276 652.796143,51.678276 
	C652.796143,54.063881 652.796143,56.203415 652.796143,59.029751 
	C643.115845,59.029751 633.354492,59.029751 623.104736,59.029709 
z"/>
<path fill="#00ADB5" opacity="1.000000" stroke="none"
	d="
M635.000732,19.759489 
	C629.191284,19.759499 623.880981,19.759499 618.231689,19.759499 
	C618.231689,17.234379 618.231689,14.992222 618.231689,12.430424 
	C629.552124,12.430424 640.963928,12.430424 652.706909,12.430424 
	C652.706909,14.620911 652.706909,16.867645 652.706909,19.759480 
	C647.046448,19.759480 641.273193,19.759480 635.000732,19.759489 
z"/>
<path fill="#00ADB5" opacity="1.000000" stroke="none"
	d="
M160.137573,29.361097 
	C160.137589,27.279961 160.137589,25.646379 160.137589,23.831343 
	C168.226425,29.951103 170.245941,39.186745 167.953262,58.837929 
	C165.524780,58.837929 163.079620,58.837929 160.137558,58.837929 
	C160.137558,49.045826 160.137558,39.427238 160.137573,29.361097 
z"/>
<path fill="#EEEEEE" opacity="1.000000" stroke="none"
	d="
M31.893801,58.969482 
	C29.443235,58.999512 27.474041,58.999512 25.214188,58.999512 
	C25.214188,48.573177 25.214188,38.363213 25.214188,27.818117 
	C27.692642,27.818117 30.234516,27.818117 32.375172,27.818117 
	C32.375172,38.310459 32.375172,48.624954 31.893801,58.969482 
z"/>
<path fill="#EEEEEE" opacity="1.000000" stroke="none"
	d="
M513.925903,25.881655 
	C513.960876,24.981642 513.995850,24.485695 514.030762,23.989748 
	C517.467590,28.393787 522.560669,31.676424 522.159668,38.432533 
	C521.766907,45.049557 522.074097,51.708122 522.074097,58.674545 
	C519.390137,58.674545 516.861023,58.674545 513.925781,58.674545 
	C513.925781,47.821945 513.925781,37.053833 513.925903,25.881655 
z"/>
<path fill="#00ADB5" opacity="1.000000" stroke="none"
	d="
M497.997711,36.862999 
	C497.376862,37.893494 496.763580,38.918980 496.139801,38.925419 
	C486.340454,39.026524 476.539795,38.996346 466.453369,38.996346 
	C466.453369,36.619377 466.453369,34.547977 466.453369,32.085152 
	C476.774841,32.085152 487.144867,32.085152 498.000397,32.085152 
	C498.000397,33.484447 498.000397,34.934185 497.997711,36.862999 
z"/>
<path fill="#EEEEEE" opacity="1.000000" stroke="none"
	d="
M637.980164,31.695293 
	C641.956482,31.695286 645.437256,31.695286 649.214478,31.695286 
	C649.214478,34.085033 649.214478,36.174057 649.214478,38.642090 
	C638.950195,38.642090 628.609375,38.642090 618.093384,38.642090 
	C618.093384,36.453236 618.093384,34.360474 618.093384,31.695301 
	C624.638062,31.695301 631.061340,31.695301 637.980164,31.695293 
z"/>
<path fill="#00ADB5" opacity="1.000000" stroke="none"
	d="
M337.964905,38.997177 
	C330.311584,38.985294 323.152740,38.977787 315.994019,38.945858 
	C315.696564,38.944530 315.400146,38.714840 314.907990,38.510445 
	C314.907990,36.495491 314.907990,34.407978 314.907990,32.011539 
	C325.219238,32.011539 335.446014,32.011539 345.983643,32.011539 
	C345.983643,34.095707 345.983643,36.185890 345.983643,38.997139 
	C343.618835,38.997139 341.039124,38.997139 337.964905,38.997177 
z"/>
</svg>