<svg id="wave" style="transform:rotate(0deg); transition: 0.3s" viewBox="0 0 1440 490" version="1.1"
     xmlns="http://www.w3.org/2000/svg">
    <defs>
        <linearGradient id="sw-gradient-0" x1="0" x2="0" y1="1" y2="0">
            <stop stop-color="rgba(34, 40, 49, 0.8)" offset="0%"></stop>
            <stop stop-color="rgba(0, 173, 181, 0.8)" offset="100%"></stop>
        </linearGradient>
    </defs>
    <path style="transform:translate(0, 0px); opacity:1" fill="url(#sw-gradient-0)"
          d="M0,441L720,0L1440,98L2160,98L2880,49L3600,196L4320,147L5040,0L5760,49L6480,0L7200,49L7920,343L8640,147L9360,0L10080,343L10800,49L11520,98L12240,0L12960,196L13680,49L14400,49L15120,441L15840,0L16560,49L17280,49L17280,490L16560,490L15840,490L15120,490L14400,490L13680,490L12960,490L12240,490L11520,490L10800,490L10080,490L9360,490L8640,490L7920,490L7200,490L6480,490L5760,490L5040,490L4320,490L3600,490L2880,490L2160,490L1440,490L720,490L0,490Z"></path>
    <defs>
        <linearGradient id="sw-gradient-1" x1="0" x2="0" y1="1" y2="0">
            <stop stop-color="rgba(57, 62, 70, 0.8)" offset="0%"></stop>
            <stop stop-color="rgba(34, 40, 49, 0.8)" offset="100%"></stop>
        </linearGradient>
    </defs>
    <path style="transform:translate(0, 50px); opacity:0.9" fill="url(#sw-gradient-1)"
          d="M0,441L720,245L1440,147L2160,147L2880,245L3600,196L4320,294L5040,196L5760,49L6480,343L7200,343L7920,441L8640,343L9360,294L10080,245L10800,343L11520,294L12240,245L12960,343L13680,98L14400,147L15120,441L15840,392L16560,0L17280,147L17280,490L16560,490L15840,490L15120,490L14400,490L13680,490L12960,490L12240,490L11520,490L10800,490L10080,490L9360,490L8640,490L7920,490L7200,490L6480,490L5760,490L5040,490L4320,490L3600,490L2880,490L2160,490L1440,490L720,490L0,490Z"></path>
    <defs>
        <linearGradient id="sw-gradient-2" x1="0" x2="0" y1="1" y2="0">
            <stop stop-color="rgba(34, 40, 49, 0.8)" offset="0%"></stop>
            <stop stop-color="rgba(238, 238, 238, 0.8)" offset="100%"></stop>
        </linearGradient>
    </defs>
    <path style="transform:translate(0, 100px); opacity:0.8" fill="url(#sw-gradient-2)"
          d="M0,441L720,196L1440,392L2160,294L2880,245L3600,49L4320,98L5040,147L5760,294L6480,98L7200,343L7920,245L8640,294L9360,98L10080,49L10800,245L11520,294L12240,343L12960,245L13680,294L14400,294L15120,343L15840,147L16560,196L17280,0L17280,490L16560,490L15840,490L15120,490L14400,490L13680,490L12960,490L12240,490L11520,490L10800,490L10080,490L9360,490L8640,490L7920,490L7200,490L6480,490L5760,490L5040,490L4320,490L3600,490L2880,490L2160,490L1440,490L720,490L0,490Z"></path>
</svg>