<?xml version="1.0" standalone="no"?><svg xmlns="http://www.w3.org/2000/svg" viewBox="0 0 1440 320"><path fill="#ffdd42" fill-opacity="1" d="M0,224L45,96L90,128L135,224L180,192L225,96L270,96L315,192L360,256L405,224L450,160L495,64L540,224L585,96L630,192L675,224L720,32L765,128L810,192L855,288L900,256L945,96L990,160L1035,128L1080,64L1125,192L1170,128L1215,32L1260,128L1305,128L1350,224L1395,224L1440,224L1440,0L1395,0L1350,0L1305,0L1260,0L1215,0L1170,0L1125,0L1080,0L1035,0L990,0L945,0L900,0L855,0L810,0L765,0L720,0L675,0L630,0L585,0L540,0L495,0L450,0L405,0L360,0L315,0L270,0L225,0L180,0L135,0L90,0L45,0L0,0Z"></path></svg>